<?xml version="1.0" encoding="utf-8"?>
<!-- Generator: Adobe Illustrator 24.3.0, SVG Export Plug-In . SVG Version: 6.00 Build 0)  -->
<svg version="1.1" id="レイヤー_1" xmlns="http://www.w3.org/2000/svg" xmlns:xlink="http://www.w3.org/1999/xlink" x="0px"
	 y="0px" viewBox="0 0 918 162" style="enable-background:new 0 0 918 162;" xml:space="preserve">
<path d="M8.5,153.3c-1.9-1.9-2.9-4.6-2.8-7.3V14.7C5.5,12,6.5,9.3,8.5,7.4c3-3,7.6-3.7,11.3-1.8c1.3,0.6,2.5,1.5,3.5,2.6l84.6,112.5
	V14.7c-0.1-2.7,1-5.4,2.9-7.3c1.9-1.9,4.5-2.9,7.2-2.8c2.6-0.1,5.2,1,7,2.8c1.9,1.9,2.9,4.6,2.8,7.3V146c0.1,2.7-0.9,5.3-2.8,7.3
	c-1.9,1.9-4.4,2.9-7.1,2.8c-1.5,0-3-0.3-4.4-0.9c-1.4-0.5-2.6-1.4-3.4-2.6L25.6,40.1V146c0.1,2.7-1,5.3-2.8,7.2
	c-1.9,2-4.6,3-7.3,2.9C12.9,156.2,10.3,155.2,8.5,153.3z"/>
<path d="M169.6,150c-8-4.5-14.6-11.1-19-19.1c-4.6-8.5-7-18.1-6.8-27.7c0-10.5,2.3-19.8,6.8-27.9c4.4-8,11-14.7,19-19.1
	c8.5-4.7,18.1-7.1,27.8-6.9c9.6-0.2,19.1,2.2,27.4,6.9c8,4.5,14.6,11.1,19,19.1c4.6,8.2,6.9,17.5,6.9,27.9
	c0.2,9.7-2.2,19.2-6.8,27.7c-4.4,8-10.9,14.6-18.9,19.1c-8.4,4.7-18,7.1-27.6,6.9C187.7,157.1,178.1,154.7,169.6,150z M215.1,134.8
	c5.2-3.1,9.4-7.5,12.2-12.9c3-5.8,4.5-12.2,4.4-18.7c0.1-6.5-1.4-13-4.4-18.8c-2.8-5.4-7-9.9-12.2-13c-11-6.2-24.5-6.2-35.5,0
	c-5.2,3.1-9.5,7.6-12.3,13c-3,5.8-4.6,12.3-4.5,18.8c-0.1,6.5,1.4,13,4.5,18.7c2.8,5.4,7.1,9.8,12.3,12.9
	C190.6,141,204,141,215.1,134.8z"/>
<path d="M354.1,54.6c0.9,1.4,1.4,2.9,1.4,4.6c0,1.3-0.4,2.5-1,3.7l-41.1,86.7c-1.9,4.3-4.9,6.4-8.9,6.4c-1.9,0.1-3.8-0.4-5.4-1.4
	c-1.7-1.3-3-3-3.9-5L254,62.8c-0.5-1.1-0.8-2.3-0.8-3.5c0-3.5,1.8-6.2,5.4-8c1.2-0.7,2.6-1,4.1-1c1.6,0,3.1,0.4,4.5,1.3
	c1.4,0.8,2.6,2.1,3.3,3.6l33.8,72.7l33.4-72.8c0.7-1.5,1.9-2.7,3.4-3.5c1.4-0.8,3.1-1.3,4.8-1.3c1.5,0,3.1,0.3,4.5,1
	C351.8,52.1,353.1,53.2,354.1,54.6z"/>
<path d="M438.4,56.3c8,4.7,14.6,11.3,19.2,19.4c4.8,8.4,7.2,17.8,7.1,27.5v43.3c0,5.5-4.4,9.9-9.9,9.9s-9.9-4.4-9.9-9.9c0,0,0,0,0,0
	v-7.2c-15.4,18.6-42.1,23.1-62.8,10.7c-7.6-4.7-13.8-11.4-17.9-19.3c-4.4-8.5-6.6-17.9-6.5-27.4c-0.1-9.6,2.3-19.1,7-27.5
	c4.5-8.1,11.2-14.8,19.3-19.4c8.3-4.7,17.7-7.2,27.2-7.1C420.8,49.1,430.1,51.5,438.4,56.3z M428.8,134.7c5.2-3.1,9.5-7.6,12.3-13
	c3-5.7,4.6-12.1,4.5-18.5c0.1-6.5-1.4-12.9-4.5-18.6c-9-16.6-29.8-22.7-46.4-13.7c-0.4,0.2-0.7,0.4-1.1,0.6
	c-5.2,3.2-9.5,7.7-12.4,13.1c-3.1,5.7-4.6,12.1-4.6,18.6c-0.1,6.5,1.5,12.8,4.6,18.5c2.9,5.4,7.2,9.8,12.4,13
	C404.6,141,418,141,428.8,134.7L428.8,134.7z"/>
<path d="M495.6,151.6c-4.6-3.2-8.2-7.6-10.4-12.8c-2.5-5.8-3.8-12.2-3.7-18.5V14.3c0-5.4,4.3-9.7,9.7-9.7s9.7,4.3,9.7,9.7v105.9
	c0,4.8,0.9,8.7,2.7,11.8c1.8,3.1,4.1,4.7,7,4.7h4.9c2.4-0.1,4.7,0.9,6.3,2.7c1.7,1.9,2.5,4.4,2.4,7c0,2.8-1.4,5.4-3.7,7
	c-2.8,1.9-6.1,2.9-9.5,2.7h-0.4C505.2,156.2,500,154.6,495.6,151.6z"/>
<path d="M627.6,52.5c1.9,1.9,2.8,4.5,2.7,7.2v86.5c0.1,2.6-0.9,5.2-2.7,7.1c-3.8,3.9-10.1,4-14.1,0.2c-2-1.9-3.1-4.5-3-7.3v-2.1
	c-4.2,4.2-9.2,7.4-14.8,9.6c-5.8,2.3-12,3.4-18.2,3.4c-8.4,0.1-16.7-1.9-24.1-5.8c-7.1-3.9-12.9-9.8-16.7-17c-4-7.4-6-16.4-6-26.9
	V59.7c-0.2-5.5,4.1-10,9.6-10.2c5.5-0.2,10,4.1,10.2,9.6c0,0.2,0,0.4,0,0.6v47.7c0,10.5,2.8,18.4,8.4,23.8s13.1,8,22.4,8
	c5.1,0.1,10.2-1.1,14.8-3.3c4.2-2,7.8-5.1,10.5-8.9c2.5-3.7,3.8-8.1,3.8-12.6V59.7c-0.1-2.7,0.9-5.3,2.8-7.2
	C617.4,48.9,623.5,48.9,627.6,52.5z"/>
<path d="M784.6,60.1c6.9,7.4,10.4,17.7,10.4,30.8v55.5c0.1,2.6-0.9,5.2-2.7,7.1c-3.8,3.9-10.1,4-14.1,0.2c-2-1.9-3-4.5-3-7.3V90.9
	c0-7.9-2-13.9-5.9-17.9s-9.2-6.1-15.8-6.1c-6.3-0.2-12.3,2.4-16.6,7c-4.3,4.7-6.5,10.6-6.5,17.8v54.7c0.1,2.6-0.9,5.2-2.7,7.1
	c-1.9,1.9-4.5,2.9-7.2,2.8c-5.3,0.2-9.7-4-9.9-9.3c0-0.2,0-0.4,0-0.6V90.9c0-7.9-2-13.9-5.9-17.9s-9.2-6.1-15.8-6.1
	c-6.8,0-12.4,2.3-16.8,7c-4.3,4.7-6.5,10.6-6.5,17.8v54.7c0.1,2.6-0.9,5.2-2.7,7.1c-3.9,3.9-10.2,3.9-14.1,0
	c-1.9-1.9-2.9-4.4-2.9-7.1V60.1c-0.1-2.7,0.9-5.3,2.8-7.2c1.9-1.8,4.5-2.8,7.1-2.7c2.6-0.1,5.1,0.8,7,2.6c1.8,1.8,2.9,4.3,2.9,6.9
	c3.4-3.4,7.5-6.1,12-7.9c4.8-1.9,10-2.9,15.1-2.8c6.2-0.1,12.2,1.3,17.8,4c5.2,2.6,9.6,6.5,12.9,11.3c3.9-4.8,8.9-8.7,14.6-11.3
	c6.1-2.8,12.7-4.2,19.4-4.1C768.6,49,777.7,52.7,784.6,60.1z"/>
<path d="M832.6,150c-8-4.5-14.6-11.1-19-19.1c-4.6-8.5-7-18.1-6.8-27.7c0-10.5,2.3-19.8,6.8-27.9c4.4-8,11-14.7,19-19.1
	c8.5-4.7,18.1-7.1,27.8-6.9c9.6-0.2,19.1,2.2,27.5,6.9c8,4.5,14.6,11.1,19,19.1c4.6,8.2,6.9,17.5,6.9,27.9
	c0.2,9.7-2.1,19.2-6.7,27.7c-4.4,8-11,14.6-19,19.1c-8.4,4.7-18,7.1-27.6,6.9C850.7,157,841.1,154.7,832.6,150z M878.1,134.8
	c5.2-3.1,9.4-7.5,12.2-12.9c3-5.8,4.5-12.2,4.4-18.7c0.1-6.5-1.4-13-4.4-18.8c-2.8-5.4-7-9.9-12.2-13c-11-6.2-24.5-6.2-35.5,0
	c-5.2,3.1-9.5,7.6-12.3,13c-3,5.8-4.6,12.3-4.5,18.8c-0.1,6.5,1.4,13,4.5,18.7c2.8,5.3,7.1,9.8,12.3,12.9
	C853.7,141,867.1,141,878.1,134.8z"/>
</svg>
